<svg xmlns="http://www.w3.org/2000/svg" width="512" height="512" viewBox="0 0 512 512" role="img" aria-label="Quotle.info">
  <defs>
    <linearGradient id="g" x1="0" y1="0" x2="1" y2="1">
      <stop offset="0" stop-color="#d4627a"/>
      <stop offset="1" stop-color="#9e3b52"/>
    </linearGradient>
  </defs>
  <rect width="512" height="512" rx="112" fill="url(#g)"/>
  <path fill="#fff" d="M181 342c-34 0-59-26-59-63 0-52 38-93 92-110l16 30c-31 12-51 33-56 57 3-2 8-3 14-3 30 0 52 22 52 51 0 27-24 48-59 48zm168 0c-34 0-59-26-59-63 0-52 38-93 92-110l16 30c-31 12-51 33-56 57 3-2 8-3 14-3 30 0 52 22 52 51 0 27-24 48-59 48z"/>
</svg>
